<?xml version="1.0" encoding="UTF-8"?>
<svg id="text" xmlns="http://www.w3.org/2000/svg" viewBox="0 0 113.72 27.16">
  <defs>
    <style>
      .cls-1 {
        isolation: isolate;
      }

      .cls-2 {
        fill: #cf266c;
      }
    </style>
  </defs>
  <g class="cls-1">
    <path class="cls-2" d="M10.01,5.34c-.1.18-.25.31-.46.36-.23.05-.43.1-.66.15-.08,0-.13.03-.2.05-.28.08-.56.05-.82-.08-.08-.03-.15-.13-.2-.23-.05-.08-.05-.18-.05-.28,0-.46-.13-.87-.28-1.27-.03-.05-.05-.13-.1-.15-.38-.41-.84-.69-1.43-.71-.41-.03-.71.13-.97.43-.2.23-.36.48-.48.74-.05.05-.05.1-.05.15-.05.48.03.94.18,1.38.13.43.43.74.74,1.02.36.31.69.64,1.04.97.18.18.38.33.56.48.25.23.51.48.74.71.05.03.1.08.15.1.54.43,1.02.94,1.43,1.5.36.46.66.97.97,1.48.31.54.51,1.12.69,1.71.13.38.1.76.1,1.15.03.36.05.71,0,1.07-.05.38-.1.76-.2,1.15-.13.38-.33.69-.51,1.04-.1.23-.31.41-.51.54-.1.08-.25.1-.36.1-.25-.03-.46.05-.61.23-.13.2-.33.2-.54.23-.28.05-.56-.03-.82-.1-.1-.03-.23,0-.33.05-.66.28-1.35.31-2.06.31-.15,0-.28-.05-.43-.08-.59-.13-1.17-.28-1.71-.54-.46-.23-.92-.46-1.25-.87-.15-.2-.31-.46-.46-.69-.13-.18-.25-.36-.36-.56-.15-.31-.31-.59-.36-.92-.03-.36-.1-.71-.15-1.07-.05-.2-.05-.41-.18-.59-.13-.15-.08-.25.05-.38.03-.03.05-.05.08-.1.05-.13.1-.28.18-.41.1-.31.36-.46.61-.61.1-.08.23-.08.33,0,.38.25.82.43,1.12.79.28.31.46.66.59,1.07.1.36.08.71.13,1.07.03.23.1.38.33.46.43.13.89.25,1.35.25.23,0,.46.03.71,0,.2-.05.43-.08.64-.15.2-.05.33-.2.43-.38.1-.25.28-.46.31-.71.03-.15.05-.28.03-.41-.08-.41-.23-.79-.43-1.15-.31-.66-.76-1.25-1.25-1.81-.2-.25-.43-.48-.69-.69-.1-.08-.18-.18-.25-.28-.28-.28-.54-.54-.79-.82-.03-.03-.05-.05-.08-.08-.43-.56-.94-1.07-1.3-1.71-.1-.18-.18-.36-.28-.54-.03-.08-.08-.13-.13-.18-.08-.13-.15-.25-.23-.38-.03-.03-.03-.08-.05-.1-.23-.18-.31-.46-.41-.69-.13-.25-.25-.48-.25-.79,0-.05-.03-.1-.05-.15,0-.08-.05-.18-.03-.23.13-.23.08-.48.08-.74,0-.28.1-.51.23-.71.08-.15.2-.28.31-.41.03-.05.05-.08.08-.13.28-.69.76-1.25,1.38-1.68.28-.2.59-.38.89-.54.25-.13.54-.2.79-.25.76-.23,1.58-.2,2.34-.15.64.05,1.22.28,1.78.54.13.05.23.18.36.28.31.25.61.54.87.87.2.28.25.59.36.89.05.15.1.33.13.51.03.18.03.36.03.54.08.43-.15.76-.33,1.12ZM.56,15.07c0,.05.03.1.03.18t.05-.03c0-.05-.03-.1-.03-.15h-.05ZM7.21,18.51c-.15-.05-.2,0-.23.13.08-.05.13-.08.23-.13ZM8.53,18.79s.1.05.2.08c-.05-.28-.18-.48-.48-.46.03-.05.03-.1.03-.13q-.18-.13-.54-.08c.18.33.56.33.79.59ZM7.9,18.69c.03.2.18.23.28.31-.08-.1-.1-.25-.28-.31ZM8.05,16.96c.13,0,.23-.03.38-.03-.1-.18-.18-.18-.38.03ZM8.58,4.83v-.08c-.08-.03-.13-.13-.23.03.08.03.15.03.23.05ZM8.94,18.16c.05.15.15.2.28.2.1,0,.13-.13.15-.25-.15.03-.31-.05-.43.05ZM9.63,16.5c-.23-.2-.31-.23-.56-.13,0,.18-.03.36-.03.56.08.03.15.05.23.08.03-.08,0-.15.03-.18.13-.05.08-.15.05-.23q.18-.03.28-.1ZM9.55,17.67c.31-.33.54-.92.46-1.22h-.08c-.1.2-.2.41-.31.61-.08.13-.13.28-.25.38-.08.1-.1.2-.13.33q.15.03.31-.1ZM9.5,16.3c.05.03.1.03.15.03.05-.13.08-.25.13-.36-.05-.05-.13-.1-.18-.15.08,0,.18.05.23-.05q-.13-.1-.23.05c-.03.15-.08.31-.1.48Z"/>
    <path class="cls-2" d="M12.89,16.93c-.05-.13-.08-.2.03-.31.1-.13.05-.25-.03-.38-.1-.18-.25-.33-.28-.56-.03-.05-.05-.1-.05-.15-.15-.69-.28-1.38-.33-2.09-.03-.33-.08-.64-.1-.97,0-.38.05-.76.05-1.15,0-.41,0-.84.03-1.25.03-.46.03-.92.08-1.35.08-.48.15-.99.25-1.48.13-.61.31-1.25.51-1.83.13-.41.23-.82.38-1.2.08-.23.23-.43.33-.66.23-.51.56-.94.94-1.35.25-.28.51-.59.89-.71.03-.03.05-.05.1-.08.23-.15.48-.33.74-.48.05-.03.13-.03.18-.03.08,0,.13.03.2.05.15.03.33.05.43-.13.05-.08.18-.08.31-.15.05.03.15.08.25.1.05.03.1.08.13.05.23-.1.36.05.54.13.28.1.59.23.87.33.43.18.74.51,1.1.84.15.15.31.33.51.46.28.2.46.46.64.74.2.33.41.66.59.99.2.36.38.74.54,1.12.23.51.43,1.02.56,1.55.05.25.1.51.13.79.05.31.1.61.13.92.08.38.13.76.18,1.15.03.13-.03.25-.03.38-.03.36,0,.71-.03,1.1-.03.46-.08.89-.1,1.35-.03.18-.05.36-.05.51.03.48-.1.92-.2,1.38-.08.28-.13.59-.23.89-.15.56-.38,1.12-.71,1.61-.31.46-.61.94-.92,1.4-.1.15-.23.25-.38.28-.2.05-.36.18-.51.31-.31.25-.64.41-1.02.48-.31.05-.64.08-.97.13-.13.03-.25.08-.41.1-.69.08-1.38,0-2.04-.31-.13-.05-.25-.1-.38-.15-.36-.13-.69-.33-.99-.56-.33-.25-.61-.54-.87-.87-.23-.31-.43-.64-.64-.97-.08-.08-.1-.25-.28-.18-.03.05-.05.13-.05.2ZM14.27,13.52c0-.13-.03-.18-.05-.28q-.08.15.05.28ZM14.27,13.6c-.1.08-.1.15.03.28,0-.13-.03-.2-.03-.28ZM14.52,14.44c.05-.1.05-.2-.13-.28.05.13.1.2.13.28ZM14.72,13.57c.05-.23-.05-.38-.13-.54-.03.18-.05.36.13.54ZM19.13,15.68c.18-.28.31-.56.46-.87.1-.15.08-.33.13-.51.08-.43.18-.84.28-1.27.05-.13.1-.28.13-.43.05-.43.08-.89.13-1.35.03-.25.08-.54.15-.79.1-.28.18-.59.15-.89-.05-.28-.08-.56-.1-.82-.03-.05-.03-.1-.05-.15-.03-.08-.08-.15-.1-.25-.03-.25-.08-.51-.1-.76-.08-.51-.15-.99-.33-1.48-.08-.28-.18-.56-.36-.82-.33-.51-.76-.94-1.22-1.38-.18-.15-.56-.13-.71.1-.18.23-.33.48-.51.71-.23.36-.38.79-.51,1.2-.05.23-.1.43-.18.66-.18.48-.33.97-.38,1.48-.08.56-.18,1.1-.18,1.66,0,1.12.03,2.24.03,3.36v.08c.08.54.13,1.1.23,1.63.08.33.15.64.33.92.15.23.31.48.59.64.2.1.41.15.64.15.15,0,.33-.05.51.08.03.03.05,0,.1,0,.15.03.66-.41.69-.56v-.13c.08-.08.18-.13.2-.2ZM18.5,17.77c-.13-.03-.23-.03-.36.1.15-.03.25-.03.36-.05v-.05ZM18.24,17.29c.23,0,.46-.05.61-.2.13-.1.25-.18.38-.28.13-.1.31-.2.43-.33.15-.15.31-.33.46-.51.05-.05.05-.1.1-.18-.03,0-.03-.03-.05-.03-.05.03-.13.05-.18.1-.23.23-.46.46-.71.66-.15.15-.36.31-.54.43-.18.1-.36.18-.51.25v.08ZM19.59,17.34c.15-.13.25-.31.38-.46q.28-.38.28-.51c-.38.46-.74.89-1.12,1.35.25,0,.33-.25.46-.38ZM21.68,16.25c.13.15.13.2-.05.28-.05.03-.1.08-.15.1-.08,0-.15.08-.18.05-.05-.05-.08-.13-.1-.18-.13-.03-.23-.03-.38-.05.1.25.1.46-.08.64-.03.03-.03.05-.05.08-.1.2-.23.41-.43.56-.2.15-.38.33-.56.51.03,0,.03.03.03.05.18-.03.33-.05.48-.05.03.05.03.1.05.15.08-.05.13-.1.18-.15.2-.18.36-.38.56-.51.2-.13.28-.28.38-.43.13-.2.28-.36.43-.51.2-.15.25-.31.18-.59-.08,0-.15-.03-.2-.03s-.1.03-.13.03c0,.03,0,.05.03.05ZM19.95,4.91c.03.36.31.61.41.92,0,.03.05.03.1.05-.13-.36-.18-.74-.51-.97ZM20.48,13.75c-.15.38-.33.79-.48,1.17-.03.03,0,.05,0,.08.13-.05.25-.1.31-.25.03-.15.13-.28.15-.46.03-.18.05-.38.2-.54.03,0-.03-.08-.05-.15-.05.08-.1.1-.13.15ZM20.46,15.38c.1,0,.1-.1.15-.2-.1.05-.15.1-.23.13.03.03.05.05.08.08ZM20.54,17.75c.13-.05.15-.15.15-.25.03-.2.05-.23.28-.2,0,.2-.23.25-.28.41-.05.15-.23.18-.28.33-.03-.15,0-.25.13-.28ZM20.43,5.98c.03.08.05.15.08.23t.05-.03c0-.08-.03-.15-.03-.23-.05,0-.08.03-.1.03ZM20.54,6.31c.03.13.05.23.1.36.05-.25.03-.33-.1-.36ZM20.54,13.47c.08,0,.1.03.15.03,0-.08-.03-.13-.05-.23-.05.08-.08.13-.1.2ZM20.69,13.01c.03-.05.05-.08.05-.13q-.13.05-.05.13ZM20.74,7.25c.03.18.05.33.08.51.05.13-.03.31.13.43.08-.05.1-.1.1-.18-.08-.31-.13-.64-.2-.94-.03-.1-.08-.18-.15-.31-.1.23.03.36.05.48ZM20.99,11c.1-.13.08-.25.05-.38-.08.1-.13.23-.05.38ZM21.3,16.04h-.1v.08s.08,0,.1-.03v-.05ZM21.25,16.93s-.03-.03-.05-.03c.03-.05.05-.1.08-.15.03.03.05.03.05.03-.03.05-.05.1-.08.15ZM21.3,15.51c.15.05.2-.03.25-.18-.1-.03-.2-.03-.31-.05-.05.1-.05.2.05.23ZM21.66,5.54c-.08.15-.05.28,0,.41.05.1.08.2.1.31.03.15.03.28.05.41.08.28.15.56.2.84.05.23.1.46.13.69,0,.18-.03.36,0,.54.03.2.05.38.05.56s.1.28.25.38c.1-.74-.46-3.67-.79-4.13ZM21.81,14.95c-.13.08-.08.2-.03.25.13.2.33.31.61.36-.23-.23-.41-.43-.59-.61ZM22.04,11.33c0,.31-.05.61-.08.89-.05.41-.13.82-.2,1.22,0,.03.05.08.08.18.03-.08.08-.1.08-.15.05-.15.08-.31.1-.48.05-.31.13-.59.15-.89.03-.31.03-.61.05-.92,0-.13,0-.25.03-.38v-.31c0-.1-.03-.18.1-.23.03,0,.05-.05.05-.1.03-.03,0-.05,0-.08h-.25c-.03.43-.1.84-.1,1.25ZM22.12,15.86s.08-.03.15-.05c-.15-.15-.28-.25-.51-.31.05.23.23.25.36.36ZM22.96,13.95c-.08.08-.1.13-.18.18.15.03.15-.05.18-.18ZM22.8,14.56q.1-.13-.03-.2c0,.08.03.13.03.2ZM23.08,13.49c-.03.05-.05.08-.08.13t.05.03s.05-.08.08-.13c-.03,0-.05-.03-.05-.03ZM23.11,12.75c.1-.05.13-.13.05-.25-.13.08-.15.15-.05.25ZM23.08,13.26c.03-.08.03-.18.05-.28q-.1.15-.05.28ZM23.11,9.42s-.05.05-.05.08c0,0,.03.05.05.05.03-.03.05-.03.1-.05-.08-.05-.1-.08-.1-.08Z"/>
    <path class="cls-2" d="M27.72,19.69c-.1-.18-.18-.36-.25-.51.03-.08.05-.18.08-.31-.2-.05-.25-.23-.31-.38-.1.03-.13.08-.08.15.05.1.13.2.2.31t-.05.03l-.15-.15-.15-.15-.05.05c.1.13.2.25.31.38-.05.05-.1.08-.15.1.13.1.28.18.36.31.08.1.08.25.1.41-.15-.03-.33,0-.48-.08-.13-.05-.23-.05-.38-.03,0,.08-.03.15-.05.2-.03,0-.05.03-.08,0-.18-.05-.33-.1-.43-.31-.05-.13-.18-.18-.31-.15-.08.03-.13,0-.18-.08-.1-.2-.28-.31-.43-.43-.15-.08-.18-.18-.18-.31v-1.55c.03-.64.08-1.27.1-1.91.03-.13-.03-.25-.03-.38,0-.92-.05-1.81,0-2.7.03-.82.03-1.61,0-2.42,0-.05.03-.1.03-.15,0-.13-.03-.25-.03-.38,0-.1-.03-.18-.03-.25.03-.43.03-.84.03-1.27,0-.13-.03-.25-.05-.38-.03-.05-.03-.08-.03-.13v-.94c.03-.25.03-.54.05-.82l.15-1.53c.08-.56.15-1.12.25-1.68,0-.03,0-.05.03-.08.18-.43.33-.84.61-1.2.15-.18.36-.33.61-.36.33-.03.64-.1.97-.03.05.03.15.03.23,0,.43-.05.87-.05,1.3-.15.15-.03.33-.05.51-.08.13-.03.28.03.43.03.46.03.89.18,1.33.33.43.15.82.38.99.87.1.25.08.51.08.74,0,.05-.08.13-.13.15-.18.1-.38.18-.56.25-.03.38-.33.41-.59.46-.25.05-.51.05-.76.08-.1,0-.2.03-.31.05-.43.08-.87.18-1.3.25-.05.03-.1.03-.18.05-.18.05-.28.15-.33.41-.1.59-.18,1.17-.2,1.78,0,.46-.08.94-.1,1.43-.03.36-.03.74-.03,1.1,0,.18.05.23.23.23.46,0,.92.03,1.38,0,.54-.03,1.07.05,1.58.15.31.08.56.18.79.36.2.13.33.28.36.51.03.08.03.13.05.18.08.18,0,.36-.05.51,0,.03,0,.05-.03.08-.2.1-.33.31-.48.46-.08.1-.2.15-.31.2-.31.08-.59.13-.89.23-.23.08-.54.05-.79.08h-.99c-.15,0-.33.03-.51.03-.23.03-.28.1-.28.33,0,.13.03.28.03.41v.66c0,.23,0,.48.03.71v.05c-.08.28,0,.54-.03.82,0,.13.03.23.03.36.03.38.05.76.05,1.15,0,.41-.03.79-.05,1.2,0,.13.05.28.05.41.03.23.05.46.05.66.03.28.05.54.08.82v.64c-.25-.13-.46.03-.66.15ZM25.38,10.54v-.31q-.08.2,0,.31ZM25.99,17.11c-.03-.31-.08-.61-.18-.92-.03.05-.05.13-.05.18.03.2.03.38.05.56,0,.18,0,.36.03.51.03.08.03.13,0,.2-.1.2.05.38.31.41-.03-.33-.1-.64-.15-.94ZM25.86,15.97c0-.08.03-.13.03-.2-.03,0-.05-.03-.05-.03-.03.08-.03.15-.05.23h.08ZM26.17,18.67l.08.08c.2.08.38.15.59.23,0-.03.03-.03.03-.05-.13-.13-.25-.28-.41-.46-.03.1-.03.15-.05.23-.05-.08-.1-.15-.1-.18.08-.08.05-.15-.03-.2-.08-.05-.15-.13-.25-.05.05.13.2.23.15.41ZM26.68,18.46s.03.08.03.13h.05v-.13h-.08ZM26.98,18.34c.05.03.08.03.18.08-.05-.1-.05-.15-.08-.25-.05.08-.08.13-.1.18ZM27.08,17.67c0,.15.05.18.2.1-.1-.05-.15-.05-.2-.1ZM31.03,9.62c-.15-.15-.33-.2-.56-.2.25.23.36.25.56.2ZM31.21,2.36c.05,0,.13-.03.18-.05.03-.05-.03-.13-.03-.2-.15.08-.25.13-.38.18.1.05.18.08.23.08ZM31.9,10.15c-.23-.15-.43-.15-.64-.15v.28c.2-.05.41-.08.64-.13ZM32.18,2.38s-.08.03-.13.03v.05h.13v-.08Z"/>
    <path class="cls-2" d="M38.7,19.07c-.13,0-.1.08-.1.2-.33-.23-.48-.54-.51-.89-.03-.1-.05-.13-.18-.13.05.15.03.33.13.46.1.18.15.38.1.61-.08-.08-.05-.23-.23-.25.05.2.1.36.15.54-.15,0-.1-.28-.33-.15.15.23.36.46.15.76-.23.05-.28-.2-.43-.25-.03-.03-.03-.08-.05-.08-.13-.13-.2-.13-.31.03l-.08.08c-.05-.15-.13-.28-.18-.41-.03-.03-.03-.05-.03-.08-.25-.18-.2-.43-.25-.66,0-.08,0-.15-.03-.2-.08-.1-.08-.2-.03-.33.05-.13.03-.28.05-.43,0-.71,0-1.43.03-2.14.03-.48.05-.97.1-1.45.05-.56.13-1.15.1-1.71-.03-.33,0-.69,0-1.02,0-.43,0-.87-.03-1.3,0-.33.1-.64.18-.94.03-.13.08-.23.08-.33,0-.36.05-.71.03-1.1-.05-.54-.03-1.07-.03-1.63-.03-.36-.03-.74-.08-1.12,0-.1-.08-.25-.15-.31-.25-.13-.25-.38-.31-.61-.03-.08-.03-.18-.05-.28-.05-.18-.08-.2-.25-.23h-.13c-.59-.05-1.2-.08-1.78-.1-.15,0-.33-.03-.51-.03-.15.03-.25-.05-.31-.2-.15-.41-.25-.82-.15-1.27,0-.1.03-.2,0-.31-.13-.28.05-.46.18-.66.03-.08.08-.13.15-.15.23-.1.48-.18.74-.28h.13c.48.03.99,0,1.48.1.23.03.46.05.71.05.43,0,.87-.03,1.33-.03.1,0,.23.05.33.05.25.03.51,0,.74.03.28.03.56.05.84.08.36.03.71.08,1.1.1.46.05.94.08,1.4.1.41.05.82.18,1.15.38.31.18.51.48.64.84.03.1.03.2-.05.31-.05.05-.08.13-.13.18-.1.08-.05.25-.2.28-.13,0-.23.03-.36.05.03.08.03.15-.08.2-.54.18-1.04.36-1.55.54-.1.05-.18.05-.28.05-.43-.05-.87-.08-1.3-.13h-.2c-.1.15-.13.28-.13.43.03.51.05,1.04.08,1.55,0,.48.03.99.03,1.48.03.28-.03.59,0,.87.05.43,0,.84,0,1.27,0,.23-.05.46-.05.66-.03.48-.03.94-.05,1.4-.03.31-.05.59-.08.89-.03.23-.03.48-.05.71v.2c-.03.18-.03.36-.03.54-.03.18,0,.36-.08.54-.08.18-.08.38-.08.59-.03.36,0,.71-.05,1.04-.05.41-.03.82-.05,1.25-.03.31-.03.64-.03.94,0,.13.03.25.03.38-.03.33-.05.66-.1.99,0,.13-.1.23-.18.36-.08.1-.2.13-.33.08-.15-.05-.15-.15-.13-.25,0-.18.03-.33.08-.51.03-.13-.03-.25-.1-.36,0-.08.05-.15-.03-.23-.1.1-.05.15.03.23-.03.05-.03.13-.05.13ZM37.43,7.94v.18c.13-.08.13-.13,0-.18ZM37.43,17.6v.31c.03.2.05.23.36.18-.15-.15-.08-.41-.36-.48ZM37.68,18.74c.05-.23,0-.41-.23-.48.1.18.05.38.23.48ZM37.71,14.16s-.03-.08-.05-.15c-.08.61-.15,1.17-.13,1.73v.61s-.03.05-.03.05c0,.1-.03.2-.03.31v.41c.05,0,.08.03.18.03.03-1.02.05-1.99.05-2.98ZM37.68,19.28s.05-.05.08-.05c-.03-.03-.05-.05-.08-.05s-.05.03-.05.05q-.03-.13-.15-.18c.05.08.1.13.15.18,0,.03.03.05.05.05ZM37.53,17.47s.05,0,.1-.03c-.03-.05-.05-.1-.08-.15-.08.08-.1.13-.03.18ZM37.79,13.14v-.15h-.05c0,.05,0,.1-.03.15h.08ZM37.91,17.88c-.08.2-.08.25.1.28,0-.1-.03-.2-.05-.31,0,0-.03,0-.05.03ZM38.45,18.51c0,.1,0,.2-.03.31h-.03c-.03-.05-.05-.13-.08-.2l-.03.03v.25c.1.05.15.13.25.18.13-.23-.05-.38-.1-.56ZM38.45,17.37q-.08.13,0,.31c.13-.2.13-.23,0-.31ZM38.58,16.32v-.28q-.08.15,0,.28ZM39.09,15.15s.05-.03.08-.03c-.03-.1-.05-.2-.05-.33-.15.15-.05.23-.03.36ZM42.75,2.36c.15.05.25.15.38.2.13.05.25.1.43.18-.18-.2-.25-.48-.51-.54-.23-.03-.46-.13-.71.03.15.05.28.08.41.13ZM43.01,2.66c-.08-.05-.18-.05-.28.08.13-.03.2-.03.31-.03-.03-.03-.03-.05-.03-.05ZM43.09,2.99c-.05,0-.1.03-.15.03t.03.05s.08-.03.13-.05v-.03ZM43.34,3.2c-.08,0-.18-.05-.28.1.13,0,.2-.03.28-.03v-.08Z"/>
    <path class="cls-2" d="M59.72,5.34c-.1.18-.25.31-.46.36-.23.05-.43.1-.66.15-.08,0-.13.03-.2.05-.28.08-.56.05-.82-.08-.08-.03-.15-.13-.2-.23-.05-.08-.05-.18-.05-.28,0-.46-.13-.87-.28-1.27-.03-.05-.05-.13-.1-.15-.38-.41-.84-.69-1.43-.71-.41-.03-.71.13-.97.43-.2.23-.36.48-.48.74-.05.05-.05.1-.05.15-.05.48.03.94.18,1.38.13.43.43.74.74,1.02.36.31.69.64,1.04.97.18.18.38.33.56.48.25.23.51.48.74.71.05.03.1.08.15.1.53.43,1.02.94,1.43,1.5.36.46.66.97.97,1.48.31.54.51,1.12.69,1.71.13.38.1.76.1,1.15.03.36.05.71,0,1.07-.05.38-.1.76-.2,1.15-.13.38-.33.69-.51,1.04-.1.23-.31.41-.51.54-.1.08-.25.1-.36.1-.25-.03-.46.05-.61.23-.13.2-.33.2-.54.23-.28.05-.56-.03-.82-.1-.1-.03-.23,0-.33.05-.66.28-1.35.31-2.06.31-.15,0-.28-.05-.43-.08-.59-.13-1.17-.28-1.71-.54-.46-.23-.92-.46-1.25-.87-.15-.2-.31-.46-.46-.69-.13-.18-.25-.36-.36-.56-.15-.31-.31-.59-.36-.92-.03-.36-.1-.71-.15-1.07-.05-.2-.05-.41-.18-.59-.13-.15-.08-.25.05-.38.03-.03.05-.05.08-.1.05-.13.1-.28.18-.41.1-.31.36-.46.61-.61.1-.08.23-.08.33,0,.38.25.82.43,1.12.79.28.31.46.66.59,1.07.1.36.08.71.13,1.07.03.23.1.38.33.46.43.13.89.25,1.35.25.23,0,.46.03.71,0,.2-.05.43-.08.64-.15.2-.05.33-.2.43-.38.1-.25.28-.46.31-.71.03-.15.05-.28.03-.41-.08-.41-.23-.79-.43-1.15-.31-.66-.76-1.25-1.25-1.81-.2-.25-.43-.48-.69-.69-.1-.08-.18-.18-.25-.28-.28-.28-.54-.54-.79-.82l-.08-.08c-.43-.56-.94-1.07-1.3-1.71-.1-.18-.18-.36-.28-.54-.03-.08-.08-.13-.13-.18-.08-.13-.15-.25-.23-.38-.03-.03-.03-.08-.05-.1-.23-.18-.31-.46-.41-.69-.13-.25-.25-.48-.25-.79,0-.05-.03-.1-.05-.15,0-.08-.05-.18-.03-.23.13-.23.08-.48.08-.74,0-.28.1-.51.23-.71.08-.15.2-.28.31-.41.03-.05.05-.08.08-.13.28-.69.76-1.25,1.38-1.68.28-.2.59-.38.89-.54.25-.13.54-.2.79-.25.76-.23,1.58-.2,2.34-.15.64.05,1.22.28,1.78.54.13.05.23.18.36.28.31.25.61.54.87.87.2.28.25.59.36.89.05.15.1.33.13.51.03.18.03.36.03.54.08.43-.15.76-.33,1.12ZM50.27,15.07c0,.05.03.1.03.18t.05-.03c0-.05-.03-.1-.03-.15h-.05ZM56.92,18.51c-.15-.05-.2,0-.23.13.08-.05.13-.08.23-.13ZM58.25,18.79s.1.05.2.08c-.05-.28-.18-.48-.48-.46.03-.05.03-.1.03-.13q-.18-.13-.53-.08c.18.33.56.33.79.59ZM57.61,18.69c.03.2.18.23.28.31-.08-.1-.1-.25-.28-.31ZM57.76,16.96c.13,0,.23-.03.38-.03-.1-.18-.18-.18-.38.03ZM58.3,4.83v-.08c-.08-.03-.13-.13-.23.03.08.03.15.03.23.05ZM58.65,18.16c.05.15.15.2.28.2.1,0,.13-.13.15-.25-.15.03-.31-.05-.43.05ZM59.34,16.5c-.23-.2-.31-.23-.56-.13,0,.18-.03.36-.03.56.08.03.15.05.23.08.03-.08,0-.15.03-.18.13-.05.08-.15.05-.23q.18-.03.28-.1ZM59.27,17.67c.31-.33.54-.92.46-1.22h-.08c-.1.2-.2.41-.31.61-.08.13-.13.28-.25.38-.08.1-.1.2-.13.33q.15.03.31-.1ZM59.22,16.3c.05.03.1.03.15.03.05-.13.08-.25.13-.36-.05-.05-.13-.1-.18-.15.08,0,.18.05.23-.05q-.13-.1-.23.05c-.03.15-.08.31-.1.48Z"/>
    <path class="cls-2" d="M65.1,13.11c-.03.51-.05,1.02-.03,1.55.05.43-.03.87,0,1.3,0,.43-.03.87-.05,1.33,0,.51.03,1.02,0,1.53-.03.51-.05.99-.1,1.5-.03.25-.33.48-.59.48s-.48-.03-.74-.13c-.25-.13-.43-.36-.59-.56-.18-.2-.33-.43-.48-.66-.18-.25-.38-.51-.43-.82-.05-.15-.08-.31-.08-.46,0-.33.05-.64.05-.94,0-.51.03-.99.03-1.5-.03-.31-.03-.61.03-.92,0-.08-.03-.15-.03-.2v-1.48c0-.1-.03-.18-.03-.25v-.25c0-.08-.03-.15-.03-.23,0-.28.03-.54.05-.82,0-.05,0-.1-.03-.13,0-.05-.03-.08-.03-.1.03-.43-.03-.87.05-1.27.03-.03.03-.08.03-.1-.15-.33.05-.69-.08-1.02-.03-.08.05-.18.05-.28.03-.69.05-1.4.1-2.12,0-.15.03-.33.05-.48v-.31c0-.18.03-.36.03-.56.08-.51.13-1.04.18-1.55,0-.28.03-.59-.03-.87-.08-.36.03-.64.23-.92.15-.2.33-.36.51-.54.15-.15.36-.25.59-.28.36-.05.61-.25.92-.43.05-.03.08-.08.13-.08.66-.2,1.33-.41,2.01-.18.31.08.61.15.92.23.18.08.38.15.56.25.18.08.38.13.54.25.46.31.92.61,1.27,1.07.13.2.36.33.51.51.31.31.59.64.79.99.1.18.28.33.36.56.13.38.36.74.38,1.17,0,.18.05.33.1.48.05.2.03.38-.1.59-.1.15-.13.33-.18.51-.1.41-.18.84-.31,1.25-.13.36-.28.69-.43,1.02-.2.38-.41.51-.84.61-.25.03-.54.05-.79.08-.15.03-.28.08-.41.18-.56.43-1.15.84-1.81,1.12-.48.18-.97.38-1.45.56-.23.1-.48.18-.74.25-.03.36-.08.71-.08,1.04ZM63.65,18.69c.03.1-.03.2.1.28.08-.25-.13-.38-.25-.54-.03.13.13.15.15.25ZM63.83,17.47c.03.05.03.1.05.15,0,0,.03,0,.05-.03-.03-.03-.03-.08-.03-.13h-.08ZM63.93,19.33s0-.08-.03-.1c0-.03-.03-.03-.05-.03,0,.05.03.1.03.13h.05ZM64.49,16.4c-.03-.05,0-.1,0-.15,0-.1.05-.2,0-.28-.08-.25-.08-.51-.08-.76,0-.23,0-.46.03-.69,0-.1-.05-.2-.15-.25v.25c-.2-.25.1-.46.03-.69.13-.08.05-.2.03-.31-.03-.05-.05-.13-.05-.2-.03-.28-.05-.56-.05-.87-.03-.1-.03-.23-.03-.36-.03-.2-.05-.38-.05-.59v-1.12c0-.05-.03-.1-.05-.15-.05.05-.08.1-.08.15-.03.59.03,1.17-.03,1.76-.03.23-.03.46.03.66.08.23.05.43,0,.66l.03.05c0,.38.08.76,0,1.12-.03.1,0,.23-.03.33,0,.15.03.31.03.46-.05.48-.05.99-.05,1.5,0,.13.05.25.03.38,0,.1-.03.23-.08.33,0,.03-.13.03-.08.1,0,.03.08.05.15.08,0,.2.03.41.03.59.03.05.03.1.05.15.13.18.1.43.28.59.03,0-.03.08-.05.15-.08-.08-.13-.1-.2-.15-.15.1-.1.25-.13.41.13-.03.2.03.28.13.05.1.18.15.31.1.15-.23.08-.46.08-.71-.1-.05-.2-.08-.31-.1-.03-.08-.05-.13-.05-.2-.03-.08-.03-.15-.05-.23h.18v-.41s0-.08-.03-.13c-.1-.18-.1-.36-.03-.54.05-.1.03-.2,0-.31,0-.05-.05-.13-.1-.23.08.05.13.05.25.1-.03-.23-.05-.43-.05-.64ZM64.57,18.87v-.28q-.08.18,0,.28ZM65.92,8.73c.31-.08.61-.18.89-.31.31-.13.59-.28.87-.43.41-.23.66-.56.79-.99.1-.31.18-.61.25-.94.08-.38.08-.76-.13-1.1-.46-.69-1.07-1.1-1.91-1.2-.15-.03-.33-.05-.51-.05-.23.03-.28.08-.28.33v.23c-.03.18-.05.36-.08.54,0,.23,0,.46-.03.71-.03.51-.13,1.02-.13,1.55,0,.15-.03.31-.05.48-.03.38-.08.76-.1,1.2.15,0,.28,0,.41-.03ZM69,7.89c-.03.13-.15.18-.05.33.05-.1.08-.2.1-.31-.03,0-.03-.03-.05-.03ZM69.23,8.14c-.2.13-.1.28-.1.43.23-.03.25-.15.1-.43ZM69.84,6.72q-.05.18.2.15c-.08-.05-.13-.1-.2-.15ZM70.27,6.92s-.08,0-.13,0c-.05.15.05.18.13.2.2.1.38.18.56.28.03,0,.08,0,.15.03-.15-.18-.54-.46-.71-.51ZM71.01,6.61c-.05.1-.08.15-.08.2.03.03.08.03.15.05-.03-.1-.05-.15-.08-.25ZM71.09,6.1c-.08.1-.08.2,0,.28.15-.13.15-.15,0-.28Z"/>
    <path class="cls-2" d="M81.18,18.72c0-.05-.03-.1,0-.15,0-.15,0-.31-.18-.38-.05-.05-.05-.13-.1-.2-.05-.08-.18-.08-.2,0-.05.13-.1.25-.15.41-.08-.05-.13-.08-.18-.1-.08.15.25.2.1.38-.05.03-.08.03-.13.03-.1.03-.15.1-.13.18,0,.08.03.15.08.2.08.08.2.15.28.25-.05,0-.13-.03-.23-.05.08.1.1.15.13.18-.08.13-.13.25-.2.41-.25.08-.48-.08-.69-.2-.2-.13-.38-.28-.56-.41-.31-.2-.43-.51-.48-.84-.03-.48-.08-.97-.13-1.45-.05-.56-.08-1.1-.13-1.66,0-.08-.03-.15-.05-.23-.05-.33-.18-.41-.51-.38-.38.03-.76,0-1.12-.03-.54,0-1.07-.05-1.61.08-.1.03-.15.08-.18.2-.03.25-.1.54-.15.79-.03.15-.05.31-.08.46-.08.33-.13.66-.2.99-.05.31-.13.61-.23.92-.05.15-.13.28-.18.43-.18-.08-.2-.23-.2-.38,0-.13.03-.28.03-.43-.05-.03-.13-.08-.15-.05-.18.1-.33.03-.54-.05.03.03.03.08.05.1s.08.08.05.08c-.13.15.03.31.05.43.03.1,0,.2,0,.31,0,.15,0,.28-.03.43-.23.05-.46.03-.61.31-.1-.18-.1-.31-.1-.46s0-.31-.13-.41c-.08.03-.15.05-.25.08.05.08.08.15.13.23-.18.03-.36.05-.48-.13-.13-.15-.28-.28-.41-.41-.08-.1-.1-.18-.08-.28.08-.41.15-.82.23-1.22.08-.28.15-.54.2-.82.08-.51.15-.99.23-1.48.08-.41.13-.82.23-1.2.25-1.04.54-2.09.82-3.16.2-.82.38-1.63.61-2.45.13-.51.2-1.02.28-1.53.08-.46.15-.92.23-1.38s.2-.89.31-1.35c.13-.46.25-.92.38-1.4.08-.31.31-.48.56-.64.28-.2.61-.31.97-.33.05,0,.1-.03.15,0,.23.1.43.03.64,0,.33-.05.64.03.94.15.18.08.28.23.36.38.23.38.43.76.64,1.15.2.43.33.89.31,1.4-.03.15.05.31.08.46.05.41.1.82.15,1.22.03.25.1.48.13.71.05.41.1.84.13,1.27.03.36.03.69.05,1.04.03.25.1.51.13.76.08.43.1.87.18,1.27.05.33.13.64.2.97,0,.05.03.13.03.18.13.69.23,1.35.33,2.04.08.41.18.82.18,1.2.03.33.13.61.18.92.1.59.18,1.17.25,1.76.03.15.08.31.08.46.03.15.03.31.05.48-.13-.03-.23-.05-.33-.08ZM72.95,18s-.03,0-.05-.03c-.03.05-.05.1-.08.13-.08,0-.15-.03-.2-.05-.08.23-.05.25.25.41.05-.08.1-.15.15-.23-.03-.08-.05-.15-.08-.23ZM72.95,18.85c0-.08-.03-.13-.18-.08.05.08.08.1.13.15.03-.03.05-.05.05-.08ZM77.2,9.39c-.13-.74-.23-1.48-.33-2.22-.03-.1-.03-.2-.05-.31-.03-.05-.08-.13-.13-.13-.08-.03-.08.08-.1.13-.2.66-.25,1.35-.38,2.01-.18.84-.38,1.68-.56,2.52-.03.08-.03.15-.05.2.33.18,1.55.1,1.99-.1-.13-.71-.25-1.43-.38-2.12ZM77.99,13.57l.05.05s.05-.05.08-.08c-.03,0-.03-.03-.05-.05l-.08.08ZM79.17,12.86c-.18.03-.15.13-.08.23.03-.08.05-.13.08-.23ZM79.4,11.63l-.1-.05c0,.13.03.2.05.31.18-.08.03-.18.05-.25ZM79.91,13.7c-.08.13-.18.23-.18.23.1.1-.03.18,0,.25.05.1.05.2.05.28.05.28.1.54.15.82.03.18.13.25.31.28,0-.03.03-.05.03-.08-.03-.15-.05-.33-.08-.51,0-.13-.03-.23-.2-.23.08-.05.1-.08.15-.1-.08-.28-.08-.61-.23-.94ZM80.06,18.87c-.05-.05-.1-.08-.15-.13,0,.13.03.18.15.13ZM80.24,15.63c-.08.03-.15.05-.2.05.05.2-.03.41.23.51q.08-.25-.03-.56Z"/>
    <path class="cls-2" d="M91.14,16.42c-.03.08-.08.13-.1.2-.2.05-.41.13-.64.2v.56h-.03c-.05-.1-.1-.23-.18-.33h-.03c-.03.08-.05.15-.08.28-.05-.08-.1-.1-.1-.15-.08-.15-.13-.2-.28-.15-.1,0-.18.05-.28.08.13.1.15.25.15.38.03.25.08.51.23.71.1.1.15.23.25.36-.03.03-.03.05-.05.08.15.13.25.46.15.64.13.05.28-.08.38.13-.13,0-.23.03-.36.03.03.08.03.13.05.18-.28.03-.28-.28-.43-.36-.13,0-.23.03-.33.03.05.2.31.2.38.38-.15.08-.33.1-.51.08-.15,0-.31-.03-.46-.1-.33-.18-.69-.15-1.04-.1-.38.05-.76-.03-1.12-.18-.94-.43-1.78-.99-2.47-1.81-.13-.18-.23-.36-.33-.54-.15-.36-.33-.71-.48-1.07-.13-.28-.23-.61-.33-.92-.1-.31-.2-.64-.28-.94-.08-.28-.08-.56-.13-.87-.1-.64-.13-1.27-.1-1.91.03-.41.08-.82.13-1.22,0-.03.03-.08,0-.08-.13-.15-.05-.31-.03-.48.03-.38.03-.76.13-1.15.1-.38.13-.79.13-1.17,0-.48.13-.97.15-1.45,0-.05.05-.1.05-.15.03-.2.05-.43.05-.64.03-.36-.05-.74.03-1.1.08-.38.23-.76.41-1.15.13-.31.33-.61.56-.87.05-.05.1-.13.13-.18.25-.25.48-.54.74-.79.31-.28.66-.51,1.1-.64.69-.18,1.4-.28,2.14-.23.25,0,.54.13.79.23.36.13.69.28,1.04.46.13.05.25.13.36.2.59.36,1.07.79,1.33,1.43.1.25.2.53.33.79.13.31.23.64.31.97.08.28.15.56.36.79.1.15.1.33,0,.51-.18.31-.48.51-.79.66-.2.08-.41.18-.61.23-.13.05-.25.13-.38.05-.03-.03-.08,0-.1,0-.1.03-.18.08-.25.05-.13-.08-.33-.05-.43-.23-.05-.05-.1-.13-.15-.15-.23-.13-.25-.38-.36-.56-.05-.08-.1-.18-.13-.25-.03-.05-.03-.1-.03-.15,0-.41-.15-.79-.33-1.15-.13-.28-.28-.54-.56-.69-.33-.18-.66-.23-1.02-.1-.05,0-.1.03-.13.03-.25-.03-.46.13-.66.23-.43.18-.61.48-.61.94,0,.38.03.79-.05,1.17-.13.54-.05,1.07-.13,1.61-.05.54-.13,1.04-.2,1.55-.05.41-.13.79-.1,1.2.03.18,0,.36,0,.51-.03.2-.03.38-.05.59,0,.38-.03.76-.03,1.15,0,.15.03.31.08.46.1.36.2.69.36,1.02.18.43.33.89.66,1.25.31.31.61.61.97.89.18.13.31.33.51.43.05.03.1.05.18.08.2.08.23.05.36-.13.23-.33.43-.66.64-.99.05-.05.08-.1.1-.18.08-.46.2-.94.18-1.43,0-.25,0-.48-.03-.74,0-.1,0-.2-.05-.28-.1-.18-.1-.33.03-.51.03,0,.03-.03.05-.08-.05-.08-.1-.13-.13-.2.03-.13.05-.25.08-.38.28-.05.33-.03.54.18-.03-.15-.05-.23-.05-.33.05-.03.13-.05.2-.1l-.08-.23c.18-.1.36-.1.48,0,.15.1.31.2.31.41,0,.03.05.08.08.1,0-.15-.08-.31.03-.41-.1-.15-.2-.28-.31-.41,0-.03.03-.1.03-.18.54.38.74.89.84,1.5-.25.15-.15.41-.2.64-.03.08-.03.18-.05.28-.03.2-.08.38-.08.59,0,.33-.05.66-.13.97-.05.23-.18.43-.25.66-.05.25-.28.43-.33.71-.03.15-.13.25-.23.38-.1.15-.2.28-.23.48.15-.03.25-.08.33-.2.05-.1.18-.18.23-.28.13-.28.36-.54.43-.87.05-.15.18-.31.25-.48.05-.13.1-.23.1-.38,0-.08,0-.18.03-.25.05-.15.1-.28.13-.41.05-.13.08-.25.13-.36.05-.13.05-.31.05-.46s.08-.28,0-.41c-.05-.13.05-.18.25-.13.03-.03.03-.05.05-.1.03,0,.05-.03.1-.1v.56c-.03.41,0,.84-.03,1.27-.03.28-.03.59-.23.82-.1.1-.2.23-.28.38-.05.05-.08.15-.05.23.03.13.03.23-.1.31-.05.03-.08.08-.08.13-.03.1-.03.18-.03.28-.05.03-.13.05-.23.08v.25c-.05-.05-.13-.05-.18.03ZM87.17,18.69c-.41-.2-.82-.33-1.17-.66h-.03c-.25-.18-.56-.28-.69-.59l-.05-.03c-.2-.05-.25-.23-.36-.33-.08-.13-.13-.31-.25-.36-.18-.13-.23-.33-.36-.51-.03-.03-.05-.1-.08-.15-.15-.25-.31-.51-.41-.82-.18-.41-.33-.84-.46-1.27-.05-.2-.05-.43-.13-.66-.08-.23-.13-.46-.13-.71,0-.15-.03-.31-.13-.51-.03.1-.08.15-.08.18,0,.08.03.15.03.23,0,.71.2,1.4.43,2.06.03.1.1.18.13.28.1.28.18.56.28.82.18.43.38.84.66,1.2.38.48.87.87,1.38,1.22.46.31.89.59,1.5.69-.05-.05-.08-.08-.1-.08ZM83.7,10.36c.03-.23.03-.46.05-.66.05-.51.08-1.02.05-1.53,0-.03,0-.05-.03-.05h-.05c-.03.59-.08,1.2-.1,1.78-.03.46-.08.94.03,1.43.03-.33.05-.64.05-.97ZM83.83,7.81c.03-.31.03-.64.03-.97,0-.1.03-.2.03-.31.03-.36.03-.71.03-1.07l-.08-.08c-.03.23-.03.38-.05.56-.03.18-.03.36-.05.54-.03.18-.03.36-.05.54,0,.18,0,.36.03.54.03.15-.1.33.05.48.1-.05.08-.15.08-.23ZM83.68,12.24s.05.08.08.15c0-.08.03-.1,0-.13,0-.03-.03-.03-.03-.05t-.05.03ZM84.26,14.23c0-.05-.03-.1-.03-.13-.05-.2-.1-.41-.25-.59.03.15.08.25.1.38,0,.15.08.25.18.33-.1.13.05.23.05.36.05.15.08.31.2.41-.05-.15-.03-.33-.2-.41.05-.13,0-.25-.05-.36ZM84.7,13.8c-.03-.1-.08-.2-.1-.28h-.05c.03.1.08.2.1.31.03,0,.05-.03.05-.03ZM84.77,14.16c.03.08.08.15.1.23.05-.13,0-.18-.1-.23ZM84.77,15.46c.08.08.05.23.23.23-.08-.1-.13-.18-.2-.25l-.03.03ZM85.15,14.95c0,.05.03.1.05.15t.05-.03c-.03-.05-.03-.1-.05-.15-.03,0-.05.03-.05.03ZM85.59,15.38c-.03-.08-.08-.13-.13-.18l-.03.03c.03.05.08.13.13.18l.03-.03ZM89,17.98s.1.03.13.03c.15-.03.15.1.23.18.03.03.08,0,.13.03,0-.05.03-.1.03-.13-.03-.05-.05-.13-.1-.15-.2-.15-.46-.18-.64-.36-.03-.03-.1.03-.18.03.03.05.05.08.1.13-.03.03-.08.05-.15.1.15.13.28.25.46.15ZM91.07,13.95c-.05.08-.13.18-.2.28-.13.25-.28.51-.41.76-.18.25-.36.48-.51.74-.08.13-.13.23-.25.31-.13.1-.23.28-.33.41-.03.03-.05.05-.05.08,0,.18-.03.2-.15.23-.08,0-.15.03-.18.03-.03.13-.03.23-.03.31.03,0,.05,0,.05-.03.23-.15.43-.33.71-.36.03,0,.03-.05.05-.05.15-.18.33-.33.48-.51.05-.03.08-.08.1-.13-.05-.03-.08-.05-.08-.08-.03,0,0-.03-.03.03.41-.66.79-1.27.89-1.99-.03-.03-.05-.03-.08-.03ZM89.38,19.13q0-.18-.2-.23c.08.08.13.13.2.23ZM89.54,3.38c.1.18.08.43.28.59.08-.23-.1-.38-.18-.54-.08-.23-.2-.46-.41-.64.03.25.18.41.31.59ZM89.77,18.79q-.23-.2-.38-.13c.13.08.2.18.38.13ZM90.35,17.77l.05.1c-.1.13-.18.23-.38.31.13-.15.23-.25.33-.41ZM90.61,10.89c-.05,0-.15.13-.15.2s.05.15.15.15c.05-.03.1-.1.13-.13,0-.13,0-.23-.13-.23ZM90.61,18.62c-.03-.15.03-.18.13-.2-.03.05-.05.1-.13.2ZM91.32,17.6c.2-.31.38-.61.59-.92.13-.18.15-.38.13-.61,0-.08,0-.18.05-.25.13-.2.08-.46.18-.69q0-.05.1-.1c-.03.31-.03.59-.05.89-.03.43-.2.84-.33,1.25-.08.28-.23.56-.38.82-.23.36-.38.74-.59,1.12-.05.13-.15.23-.28.33-.03-.15-.03-.23.05-.33.23-.28.43-.59.56-.92.05-.2.15-.38.28-.64-.15.03-.2.05-.31.05ZM91.22,5.39c-.1-.13-.23-.18-.38-.13.13.05.25.08.38.13ZM91.14,11.81c-.08.18-.08.33.03.51.03-.18.13-.33-.03-.51ZM91.17,12.63s.03-.08.03-.1c0,0-.03-.03-.05-.03,0,.03-.03.08-.03.13h.05ZM91.27,4.98v.05c.1.03.23.03.36.03,0,.05.03.08.03.13-.03.08,0,.13.08.13.1.03.15-.03.18-.1-.1-.05-.2-.1-.31-.15-.1-.03-.2-.05-.33-.08ZM91.4,16.4l.03.03c-.05.03-.08.05-.13.08l-.03-.03s.03-.05.05-.08h.08ZM91.32,11.4c.03.1-.03.23.13.33q.05-.25-.13-.33ZM91.83,4.42c.03-.1.08-.2.05-.31-.03-.2-.1-.41-.15-.61-.03-.05-.08-.08-.1-.13-.1.13-.08.25-.03.38.05.2.2.38.1.59,0,.03.05.05.08.08h.05Z"/>
    <path class="cls-2" d="M100.34,10.26c-.15.03-.28.1-.43.18-.48.2-1.02.25-1.55.25h-.59c-.23,0-.31.08-.33.31-.03.54-.03,1.04-.03,1.58-.03.48-.03.97-.05,1.45v.43c0,.1,0,.18-.1.23-.03.05-.05.13-.03.18v1.2c0,.31.08.38.38.38.25.03.51,0,.79,0h1.12c.13,0,.25.05.38.08.33.1.64.23.92.43.28.18.54.36.76.61.05.03.08.08.13.15-.31.08-.56.13-.87.18.05.08.13.15.18.23-.18.1-.36,0-.54.08.41,0,.82,0,1.22-.03.03.31-.13.48-.31.61-.23.15-.46.23-.66.36-.2.1-.43.1-.66.1-.18.03-.36.05-.54.08h-.1c-.48-.1-.97-.05-1.45-.1-.46-.05-.94.03-1.43.08-.05,0-.1,0-.13.03-.15.18-.38.15-.59.1-.23-.05-.46-.08-.56-.36-.05.05-.1.08-.15.1-.03,0-.1,0-.1-.03-.05-.15-.23-.15-.31-.25-.05-.05-.08-.13-.13-.2v-.08c-.25-.23-.2-.51-.23-.76,0-.23-.1-.48-.05-.71.05-.46-.08-.89-.08-1.33,0-.15.05-.33.03-.48,0-.33-.03-.66-.03-.97-.05-.64-.05-1.27-.03-1.91.05-.54.03-1.07.05-1.61.05-.56.13-1.12.15-1.66.03-.36.03-.69.03-1.04,0-.38,0-.76.03-1.12,0-.33-.05-.66,0-.99.03-.38-.1-.76-.08-1.12,0-.76.03-1.5.03-2.27,0-.15.03-.31.05-.43,0-.15.05-.25.18-.36.08-.05.13-.18.18-.25.13-.28.25-.56.48-.76.05-.05.1-.13.18-.13.23-.03.31-.2.46-.36.05-.1.13-.13.23-.13.33.03.66.03.99.03.38,0,.76-.03,1.15-.05h.51c.25,0,.51-.05.76-.05.05-.03.1-.03.13-.03.18.1.36.18.48.28.23.18.43.36.61.54.1.08.2.15.28.23.05.05.08.1.13.18-.15.05-.28.08-.41.15.1.05.18.1.25.18.08.03.18.03.28.03v.08c-.25.1-.51-.03-.76.03,0,.05,0,.1.03.15-.08.03-.15.03-.28.08.15.03.25.05.43.1-.1.03-.15.05-.2.05-.36.03-.71.03-1.04.05-.15.03-.18.05-.18.31.08,0,.15-.03.2-.05.13-.05.25-.1.38-.15.25-.13.54-.15.82-.05.05.03.1,0,.15,0,.03-.03.08-.03.1-.03.13.18.28.1.46.1-.13.2-.25.36-.48.41-.03,0-.05.03-.1.05-.59.33-1.2.43-1.86.43-.28.03-.54.08-.82.1-.23.05-.36.18-.36.41-.05.51-.13,1.02-.13,1.53,0,.54-.08,1.04-.08,1.58,0,.2.03.43.05.66.05.03.1.05.18.05.28-.03.56-.05.84-.03.23,0,.46,0,.66.13.31.2.69.33.94.59.15.13.33.25.48.38.18.13.18.15.05.33,0,.03,0,.05-.03.08.03.05.08.1.1.13-.03.03-.03.05-.05.05-.31-.05-.51.25-.82.2-.03,0-.05.03-.08.05.18.18.41.1.61.15-.05.05-.08.08-.13.13.18-.03.31-.03.31.18-.1.15-.25.25-.43.31ZM95.81,16.58c-.08,0-.13-.03-.18-.05-.03.03-.03.05-.03.05.05.03.13.03.2.05v-.05ZM95.98,14.16c0-.08,0-.15-.03-.23h-.05c0,.08.03.15.03.25.03,0,.05-.03.05-.03ZM95.91,14.28c.03.1.03.18.05.31.15-.13.08-.2.03-.31h-.08ZM96.01,14.61c-.05.41-.05.79.13,1.17.03-.38,0-.79-.13-1.17ZM96.21,16.22v-.28c-.13.08-.1.15,0,.28ZM96.67,2.13c-.08.03-.18.03-.25.03v.03c.08,0,.18,0,.25-.03v-.03ZM96.82,16.14l-.08-1.38s-.05-.08-.08-.13c-.05.41,0,1.25.13,1.58,0-.03.03-.05.03-.08ZM97.41,2.1h.28-.28ZM98.28,2.56h-.18.18ZM98.91,10.15c.15-.05.33-.08.43-.23-.15.05-.31.1-.46.15.03.03.03.05.03.08ZM100.01,18.59c-.25,0-.28,0-.28.2q.31-.03.28-.2ZM100.09,9.82c-.08-.03-.15-.03-.2-.05-.03.03-.03.05-.03.05.05.03.13.05.18.05.03,0,.03-.03.05-.05Z"/>
    <path class="cls-2" d="M112.8,5.34c-.1.18-.25.31-.46.36-.23.05-.43.1-.66.15-.08,0-.13.03-.2.05-.28.08-.56.05-.82-.08-.08-.03-.15-.13-.2-.23-.05-.08-.05-.18-.05-.28,0-.46-.13-.87-.28-1.27-.03-.05-.05-.13-.1-.15-.38-.41-.84-.69-1.43-.71-.41-.03-.71.13-.97.43-.2.23-.36.48-.48.74-.05.05-.05.1-.05.15-.05.48.03.94.18,1.38.13.43.43.74.74,1.02.36.31.69.64,1.04.97.18.18.38.33.56.48.25.23.51.48.74.71.05.03.1.08.15.1.54.43,1.02.94,1.43,1.5.36.46.66.97.97,1.48.31.54.51,1.12.69,1.71.13.38.1.76.1,1.15.03.36.05.71,0,1.07-.05.38-.1.76-.2,1.15-.13.38-.33.69-.51,1.04-.1.23-.31.41-.51.54-.1.08-.25.1-.36.1-.25-.03-.46.05-.61.23-.13.2-.33.2-.54.23-.28.05-.56-.03-.82-.1-.1-.03-.23,0-.33.05-.66.28-1.35.31-2.06.31-.15,0-.28-.05-.43-.08-.59-.13-1.17-.28-1.71-.54-.46-.23-.92-.46-1.25-.87-.15-.2-.31-.46-.46-.69-.13-.18-.25-.36-.36-.56-.15-.31-.31-.59-.36-.92-.03-.36-.1-.71-.15-1.07-.05-.2-.05-.41-.18-.59-.13-.15-.08-.25.05-.38.03-.03.05-.05.08-.1.05-.13.1-.28.18-.41.1-.31.36-.46.61-.61.1-.08.23-.08.33,0,.38.25.82.43,1.12.79.28.31.46.66.59,1.07.1.36.08.71.13,1.07.03.23.1.38.33.46.43.13.89.25,1.35.25.23,0,.46.03.71,0,.2-.05.43-.08.64-.15.2-.05.33-.2.43-.38.1-.25.28-.46.31-.71.03-.15.05-.28.03-.41-.08-.41-.23-.79-.43-1.15-.31-.66-.76-1.25-1.25-1.81-.2-.25-.43-.48-.69-.69-.1-.08-.18-.18-.25-.28-.28-.28-.54-.54-.79-.82l-.08-.08c-.43-.56-.94-1.07-1.3-1.71-.1-.18-.18-.36-.28-.54-.03-.08-.08-.13-.13-.18-.08-.13-.15-.25-.23-.38-.03-.03-.03-.08-.05-.1-.23-.18-.31-.46-.41-.69-.13-.25-.25-.48-.25-.79,0-.05-.03-.1-.05-.15,0-.08-.05-.18-.03-.23.13-.23.08-.48.08-.74,0-.28.1-.51.23-.71.08-.15.2-.28.31-.41.03-.05.05-.08.08-.13.28-.69.76-1.25,1.38-1.68.28-.2.59-.38.89-.54.25-.13.54-.2.79-.25.76-.23,1.58-.2,2.34-.15.64.05,1.22.28,1.78.54.13.05.23.18.36.28.31.25.61.54.87.87.2.28.25.59.36.89.05.15.1.33.13.51.03.18.03.36.03.54.08.43-.15.76-.33,1.12ZM103.35,15.07c0,.05.03.1.03.18t.05-.03c0-.05-.03-.1-.03-.15h-.05ZM110,18.51c-.15-.05-.2,0-.23.13.08-.05.13-.08.23-.13ZM111.32,18.79s.1.05.2.08c-.05-.28-.18-.48-.48-.46.03-.05.03-.1.03-.13q-.18-.13-.54-.08c.18.33.56.33.79.59ZM110.69,18.69c.03.2.18.23.28.31-.08-.1-.1-.25-.28-.31ZM110.84,16.96c.13,0,.23-.03.38-.03-.1-.18-.18-.18-.38.03ZM111.37,4.83v-.08c-.08-.03-.13-.13-.23.03.08.03.15.03.23.05ZM111.73,18.16c.05.15.15.2.28.2.1,0,.13-.13.15-.25-.15.03-.31-.05-.43.05ZM112.42,16.5c-.23-.2-.31-.23-.56-.13,0,.18-.03.36-.03.56.08.03.15.05.23.08.03-.08,0-.15.03-.18.13-.05.08-.15.05-.23q.18-.03.28-.1ZM112.34,17.67c.31-.33.54-.92.46-1.22h-.08c-.1.2-.2.41-.31.61-.08.13-.13.28-.25.38-.08.1-.1.2-.13.33q.15.03.31-.1ZM112.29,16.3c.05.03.1.03.15.03.05-.13.08-.25.13-.36-.05-.05-.13-.1-.18-.15.08,0,.18.05.23-.05q-.13-.1-.23.05c-.03.15-.08.31-.1.48Z"/>
  </g>
  <g class="cls-1">
    <path class="cls-2" d="M37.13,24.39v-.43h2.25v.43h-2.25ZM38.04,27.16v-2.93h.45v2.93h-.45Z"/>
    <path class="cls-2" d="M42.98,27.16v-3.2h.45v3.2h-.45ZM43.26,25.8v-.43h1.77v.43h-1.77ZM44.79,27.16v-3.2h.45v3.2h-.45Z"/>
    <path class="cls-2" d="M49.18,27.16v-3.2h.45v3.2h-.45ZM49.4,24.39v-.43h1.83v.43h-1.83ZM49.4,25.78v-.43h1.59v.43h-1.59ZM49.4,27.16v-.43h1.83v.43h-1.83Z"/>
    <path class="cls-2" d="M55.02,27.16v-3.2h.45v3.2h-.45ZM55.22,25.8v-.43h1.09c.13,0,.24-.05.31-.14s.12-.21.12-.36-.04-.27-.12-.36-.18-.14-.31-.14h-1.09v-.43h1.07c.19,0,.35.04.49.12.14.08.25.18.32.32.08.14.12.3.12.49s-.04.35-.12.48c-.08.14-.19.25-.32.32-.14.08-.3.12-.49.12h-1.07ZM56.82,27.16l-.73-1.45.45-.1.82,1.55h-.53Z"/>
    <path class="cls-2" d="M60.69,27.16l1.18-3.2h.38l1.18,3.2h-.48l-.88-2.58-.89,2.58h-.48ZM61.23,26.45v-.43h1.68v.43h-1.68Z"/>
    <path class="cls-2" d="M67.06,27.16v-3.2h.45v3.2h-.45ZM67.29,25.92v-.43h1.02c.15,0,.26-.05.35-.15.09-.1.13-.23.13-.4s-.04-.3-.13-.4c-.09-.1-.21-.15-.35-.15h-1.02v-.43h1.01c.19,0,.36.04.5.12.14.08.26.2.33.34.08.15.12.32.12.52s-.04.37-.12.51c-.08.15-.19.26-.33.34-.14.08-.31.12-.5.12h-1.01Z"/>
    <path class="cls-2" d="M74.94,23.96l-.97,1.9v1.3h-.45v-1.3l-.97-1.9h.5l.7,1.44.7-1.44h.5Z"/>
  </g>
</svg>